#!OML:ASF H:\Dans Jumps\Project 1\Capture day 1\Session 1\subject.ASF
:FULLY-SPECIFIED
:DEGREES
303
root 0.262197 16.5488 -12.7264 17.3572 -0.770465 -0.668198
lowerback 16.3806 0.580304 -3.77706
upperback 0.549407 0.24578 2.06521
thorax -8.64791 0.320285 4.3262
lowerneck -20.4202 0.295988 -2.49135
upperneck 20.128 1.24087 -0.197686
head 9.7449 0.35384 0.517503
rclavicle 4.37326e-015 -1.59028e-015
rhumerus -17.3522 -4.71449 -79.6247
rradius 31.3396
rwrist 27.1562
rhand -21.5787 -24.3775
rfingers 7.12502
rthumb 4.81553 -54.3028
lclavicle 4.37326e-015 -1.59028e-015
lhumerus -12.9055 -1.21188 84.3108
lradius 20.8012
lwrist 17.2389
lhand -29.8938 -12.6718
lfingers 7.12502
lthumb -3.21489 17.2837
rfemur -37.6632 -6.9514 21.3741
rtibia 53.229
rfoot -24.7741 -9.28725
rtoes -9.8604
lfemur -37.9639 11.2446 -19.8048
ltibia 53.8443
lfoot -20.4298 10.8317
ltoes -20.1427
304
root 0.257208 16.8043 -12.5211 16.7718 -0.757838 -0.480121
lowerback 14.9577 0.479448 -3.88346
upperback 0.575001 0.128933 1.9232
thorax -7.80909 0.242857 4.24128
lowerneck -19.6002 0.308338 -2.49774
upperneck 20.5635 1.20392 -0.0517175
head 9.74842 0.35032 0.563182
rclavicle 2.98177e-016 1.59028e-015
rhumerus -17.2491 -4.46761 -79.8936
rradius 31.5154
rwrist 26.7784
rhand -21.3385 -24.2447
rfingers 7.12502
rthumb 5.04747 -54.1646
lclavicle 2.98177e-016 1.59028e-015
lhumerus -12.6042 -2.1043 84.2401
lradius 21.2688
lwrist 17.9903
lhand -30.2301 -13.1044
lfingers 7.12502
lthumb -3.5397 16.846
rfemur -34.6461 -7.50083 21.0143
rtibia 49.9472
rfoot -22.4902 -7.81069
rtoes -10.5048
lfemur -35.2414 11.6271 -19.7109
ltibia 50.9528
lfoot -18.1101 8.64211
ltoes -20.4601
305
root 0.252427 17.072 -12.3108 16.2132 -0.719705 -0.308408
lowerback 13.4317 0.363299 -3.97008
upperback 0.652696 0.00496588 1.78618
thorax -6.85671 0.157042 4.14891
lowerneck -18.7248 0.325098 -2.48329
upperneck 20.9209 1.16888 0.0729892
head 9.71321 0.347686 0.597555
rclavicle 8.94531e-016 -4.96962e-015
rhumerus -17.1713 -4.21654 -80.1583
rradius 31.6352
rwrist 26.4977
rhand -21.078 -24.0873
rfingers 7.12502
rthumb 5.29908 -54.001
lclavicle 8.94531e-016 -4.96962e-015
lhumerus -12.3764 -3.06379 84.1528
lradius 21.774
lwrist 18.6845
lhand -30.5136 -13.4818
lfingers 7.12502
lthumb -3.81343 16.4638
rfemur -31.6688 -8.05759 20.6255
rtibia 46.6144
rfoot -19.7673 -6.07627
rtoes -10.922
lfemur -32.612 12.0087 -19.5722
ltibia 48.0599
lfoot -15.3463 6.21956
ltoes -20.5467
306
root 0.248247 17.353 -12.0965 15.6824 -0.65285 -0.159091
lowerback 11.8408 0.23462 -4.02952
upperback 0.772422 -0.123064 1.65997
thorax -5.82501 0.0655484 4.05051
lowerneck -17.7965 0.343446 -2.45911
upperneck 21.2005 1.13744 0.170992
head 9.6399 0.345132 0.62073
rclavicle 6.4605e-016 -1.03368e-014
rhumerus -17.1333 -3.94645 -80.4056
rradius 31.715
rwrist 26.3308
rhand -20.7917 -23.9334
rfingers 7.12502
rthumb 5.57547 -53.8401
lclavicle 6.4605e-016 -1.03368e-014
lhumerus -12.2394 -4.11371 84.0619
lradius 22.3584
lwrist 19.449
lhand -30.7436 -13.7679
lfingers 7.12502
lthumb -4.03556 16.1736
rfemur -28.7556 -8.58573 20.2063
rtibia 43.2448
rfoot -16.5106 -4.16159
rtoes -10.8438
lfemur -30.0842 12.3315 -19.3751
ltibia 45.1553
lfoot -11.9964 3.71744
ltoes -20.3556
